<?xml version="1.0" encoding="utf-8"?>
<!-- Generator: Adobe Illustrator 15.1.0, SVG Export Plug-In . SVG Version: 6.00 Build 0)  -->
<!DOCTYPE svg PUBLIC "-//W3C//DTD SVG 1.1//EN" "http://www.w3.org/Graphics/SVG/1.1/DTD/svg11.dtd">
<svg version="1.1" id="Layer_1" xmlns="http://www.w3.org/2000/svg" xmlns:xlink="http://www.w3.org/1999/xlink" x="0px" y="0px"
	 width="48px" height="48px" viewBox="0 0 48 48" enable-background="new 0 0 48 48" xml:space="preserve">
<g id="tJ22Bi.tif">
	<g>
		<path fill-rule="evenodd" clip-rule="evenodd" fill="#FFFFFF" d="M26.029,7.767c2.198,0,4.397,0,6.595,0c0,2.029,0,4.058,0,6.087
			c-1.722,0.138-4.113-0.393-5.073,0.507c-1.509,0.69-0.891,3.505-1.015,5.58c2.368,0,4.735,0,7.102,0c0,0.169,0,0.339,0,0.507
			c-0.766,1.433-0.896,3.502-1.015,5.581c-2.029,0-4.058,0-6.087,0c0,4.734,0,9.47,0,14.204c-2.029,0-4.059,0-6.088,0
			c0-4.565,0-9.131,0-13.697c-1.034-1.165-4.212-0.184-6.087-0.507c0-2.029,0-4.059,0-6.088c2.029,0,4.059,0,6.087,0
			C20.094,13.668,21,8.656,26.029,7.767z"/>
	</g>
</g>
</svg>
